Coordinates
version=1
nRows=13
nColumns=36
inDegrees=yes

Units are S.I. units (second, meters, Newtons, ...)
If the header above contains a line with 'inDegrees', this indicates whether rotational values are in degrees (yes) or radians (no).

endheader
time	pelvis_tilt	pelvis_list	pelvis_rotation	pelvis_tx	pelvis_ty	pelvis_tz	hip_flexion_r	hip_adduction_r	hip_rotation_r	knee_angle_r	knee_angle_r_beta	ankle_angle_r	subtalar_angle_r	mtp_angle_r	hip_flexion_l	hip_adduction_l	hip_rotation_l	knee_angle_l	knee_angle_l_beta	ankle_angle_l	subtalar_angle_l	mtp_angle_l	lumbar_extension	lumbar_bending	lumbar_rotation	arm_flex_r	arm_add_r	arm_rot_r	elbow_flex_r	pro_sup_r	arm_flex_l	arm_add_l	arm_rot_l	elbow_flex_l	pro_sup_l
      0.00000000	     -7.25456907	     -2.47594598	     -0.79481924	     -0.24307905	      0.96673180	      0.02942429	      5.35018907	     -2.28229595	     -6.29074653	      1.67748384	      0.02927762	      6.10109006	     -4.31912460	     -6.28378470	      5.29461024	    -11.30579497	     -0.27969502	      0.27600374	      0.00481717	     11.67402321	     -1.67421631	     -6.28378470	     18.81792276	     -0.36678846	     -8.11108484	     24.44075756	      2.89439133	     32.16938952	    113.65011707	     76.03215471	     33.85041002	      7.91018780	     64.38676508	    123.75289102	     79.29468138
      0.01666670	     -8.30188989	     -1.89776482	     -2.24343095	     -0.24072599	      0.96420163	      0.02982152	      7.33356321	     -2.94630734	     -5.90501335	      2.57049032	      0.04486352	      6.17882565	     -3.21625305	     -6.71121620	      6.15746212	    -11.17571079	     -2.75942948	      0.41664053	      0.00727175	     11.20737487	     -1.74173006	     -6.71121620	     20.76386833	     -0.33184870	     -6.86982603	     24.30073578	     -1.06129010	     37.60323931	    119.35309814	     84.05425810	     33.06751116	      6.78574449	     60.12754001	    125.80701312	     91.54904007
      0.03333330	     -9.05650025	     -2.20582741	     -3.09601132	     -0.23997002	      0.96386947	      0.03020059	      8.73875693	     -2.50310028	     -5.73828540	      3.39437613	      0.05924304	      5.97454751	     -2.24129040	     -7.01378858	      6.77187536	    -11.74610439	     -4.67846902	      0.74912796	      0.01307475	     10.48211860	     -1.49225934	     -7.01378858	     22.56790380	      0.05894533	     -8.49360057	     24.49750318	     -0.28235875	     38.70152275	    117.35218225	     89.84212004	     31.75773071	      5.56230962	     57.49645170	    125.04512995	     97.48508597
      0.05000000	     -9.53235203	     -2.32915496	     -2.92514223	     -0.23958094	      0.96243858	      0.02954818	      9.34492176	     -2.44200350	     -6.45361764	      3.51878641	      0.06141441	      6.39172936	     -1.02171910	     -7.26027146	      7.67012322	    -11.96153756	     -5.92110651	      1.46348737	      0.02554267	     10.55749868	     -0.57271409	     -7.26027146	     23.41781460	     -0.02810750	    -10.10436567	     25.08764025	      0.63110959	     41.10031441	    116.85765791	     91.75364485	     31.36003851	      4.76869044	     56.19929203	    124.64026318	     97.25310674
      0.06666670	     -9.88913996	     -2.31696918	     -2.77630794	     -0.23952535	      0.96146118	      0.02910946	      9.81557489	     -2.44192692	     -6.89456258	      3.66732685	      0.06400693	      6.89763599	     -0.43680867	     -7.35826382	      8.35355529	    -11.98235736	     -6.73675396	      1.98587164	      0.03466000	     10.73171722	      0.52607835	     -7.35826382	     23.90212627	     -0.17212252	    -11.15678584	     25.57659511	      1.37387322	     42.76557081	    116.58370886	     92.25965688	     31.52458154	      4.31834859	     55.71118590	    124.92112270	     95.85346340
      0.08333330	    -10.23074658	     -2.24141037	     -2.43237635	     -0.23925633	      0.96433876	      0.02897736	     10.11286979	     -2.53240150	     -7.21816855	      3.59060223	      0.06266783	      7.19789185	     -0.49668531	     -7.42706678	      9.07096203	    -11.90466520	     -7.25862805	      2.45175087	      0.04279113	     11.02543010	      1.59444024	     -7.42706678	     24.36731128	     -0.44451524	    -11.82594850	     25.30011669	      2.00113302	     45.61989516	    117.81650900	     92.14689853	     31.07438134	      3.98117460	     55.17419419	    124.53846743	     95.05853168
      0.10000000	    -10.59582928	     -2.09947714	     -2.14279270	     -0.23900136	      0.96039809	      0.02852686	     10.37164625	     -2.67706460	     -7.45051219	      3.44265550	      0.06008567	      7.45043796	     -0.89244934	     -7.44100671	      9.74457786	    -11.73690974	     -7.36269495	      2.86698776	      0.05003838	     11.25949064	      2.26335763	     -7.44100671	     24.91850959	     -0.76073937	    -11.96752082	     25.15967144	      2.52342231	     46.87245033	    118.89861898	     89.26959614	     31.05158753	      3.93284150	     54.85323537	    124.60126865	     91.87965370
      0.11666670	    -10.72381789	     -2.00986602	     -1.93374367	     -0.23852717	      0.96054538	      0.02830881	     10.30646385	     -2.75223431	     -7.58671856	      3.17864938	      0.05547790	      7.66840281	     -1.23859394	     -7.45059190	     10.05645544	    -11.62400082	     -7.70630881	      3.12263052	      0.05450018	     11.58850710	      3.14911014	     -7.45059190	     25.27460388	     -0.93702423	    -12.41202327	     25.25561243	      2.87876694	     47.81260523	    119.46900010	     88.11166151	     30.92608514	      3.67403074	     54.45598592	    124.76267680	     90.44949939
      0.13333330	    -11.04498872	     -1.96912894	     -1.60584553	     -0.23844129	      0.96310317	      0.02839162	     10.39971869	     -2.78314781	     -7.67059843	      2.88882595	      0.05041952	      7.81189023	     -1.67349906	     -7.46759272	     10.55677297	    -11.54321920	     -7.71342781	      3.19823078	      0.05581966	     11.54582113	      3.58787473	     -7.46759272	     25.65029974	     -1.06182924	    -12.95763520	     25.12015274	      3.23290890	     49.35220524	    120.41655853	     89.51557902	     30.74082715	      3.44541831	     54.22020039	    124.84856841	     91.69554581
      0.15000000	    -11.32479422	     -1.94395633	     -1.30987771	     -0.23788870	      0.95969009	      0.02765665	     10.47480408	     -2.80659436	     -7.87032574	      2.64019262	      0.04608005	      8.00161792	     -1.94163789	     -7.46997138	     10.93438172	    -11.45517024	     -7.73526160	      3.17580922	      0.05542833	     11.34178375	      3.77258461	     -7.46997138	     26.10273302	     -1.19971223	    -13.18743475	     25.04178501	      3.36580791	     49.53789604	    121.07646061	     88.57430509	     30.88520994	      3.45907765	     54.38216939	    125.34024234	     90.64567173
      0.16666670	    -11.53008653	     -1.95756572	     -1.10828595	     -0.23778691	      0.96241664	      0.02781107	     10.48397979	     -2.76868076	     -7.83754498	      2.39297444	      0.04176528	      8.09494049	     -2.36510959	     -7.47471004	     11.17304516	    -11.43200417	     -7.77841835	      3.12365727	      0.05451810	     11.17796810	      3.94394476	     -7.47471004	     26.41163931	     -1.24861811	    -13.24811665	     24.82446526	      3.31697519	     50.00609724	    121.53914609	     86.35292708	     30.68165570	      3.53125273	     54.88266987	    125.73470165	     88.29197167
      0.18333330	    -11.63286904	     -1.99181588	     -0.86502322	     -0.23740907	      0.96223080	      0.02748299	     10.40864878	     -2.72628637	     -8.00756518	      2.17828855	      0.03801831	      8.21675352	     -2.52169093	     -7.48477657	     11.29436037	    -11.42304661	     -7.77916348	      3.02256852	      0.05275377	     10.95921760	      4.17181915	     -7.48477657	     26.52439046	     -1.29457669	    -13.49329566	     24.87881445	      3.50143145	     51.32102068	    122.19399376	     88.23731032	     30.42428384	      3.60258752	     54.82369840	    125.61258910	     90.03687016
      0.20000000	    -11.76909521	     -2.02446306	     -0.70212600	     -0.23732158	      0.96482216	      0.02756818	     10.39299447	     -2.66562098	     -8.14859682	      1.99626705	      0.03484143	      8.33742878	     -2.61114301	     -7.49255030	     11.45512538	    -11.41457140	     -7.66575137	      2.90978420	      0.05078531	     10.77330011	      4.22542509	     -7.49255030	     26.64211150	     -1.27889286	    -13.36925100	     24.77291838	      3.50822872	     51.64255531	    122.03917511	     87.83507358	     30.19309351	      3.62936663	     55.13122584	    125.63235273	     89.35157594
